<?xml version="1.0" encoding="UTF-8" standalone="no"?> <svg width="24" height="24" viewBox="0 0 24 24" fill="none" xmlns="http://www.w3.org/2000/svg">
<path fill-rule="evenodd" clip-rule="evenodd" d="M8.01644 3.00003C8.2132 1.10684 10.1425 -0.159559 11.991 0.48742L17.9911 2.58742C19.1943 3.00856 20 4.14417 20 5.419V18.5811C20 19.8559 19.1943 20.9915 17.9911 21.4126L11.9911 23.5126C10.1425 24.1596 8.2132 22.8932 8.01644 21H7C5.34315 21 4 19.6569 4 18V6.00003C4 4.34318 5.34315 3.00003 7 3.00003H8.01644ZM8 5.00003H7C6.44772 5.00003 6 5.44775 6 6.00003V18C6 18.5523 6.44772 19 7 19H8V5.00003ZM11.3303 2.37514C10.6802 2.14758 10 2.63015 10 3.319V20.6811C10 21.3699 10.6802 21.8525 11.3303 21.6249L17.3304 19.5249C17.7314 19.3845 18 19.006 18 18.5811V5.419C18 4.99405 17.7314 4.61552 17.3303 4.47514L11.3303 2.37514ZM13 10C13.5523 10 14 10.4477 14 11V13C14 13.5523 13.5523 14 13 14C12.4477 14 12 13.5523 12 13V11C12 10.4477 12.4477 10 13 10Z" fill="#293644"/>
</svg>
